<?xml version="1.0" encoding="UTF-8" standalone="no"?>
<!-- Created with Inkscape (http://www.inkscape.org/) -->

<svg
   xmlns:dc="http://purl.org/dc/elements/1.1/"
   xmlns:cc="http://creativecommons.org/ns#"
   xmlns:rdf="http://www.w3.org/1999/02/22-rdf-syntax-ns#"
   xmlns:svg="http://www.w3.org/2000/svg"
   xmlns="http://www.w3.org/2000/svg"
   xmlns:sodipodi="http://sodipodi.sourceforge.net/DTD/sodipodi-0.dtd"
   xmlns:inkscape="http://www.inkscape.org/namespaces/inkscape"
   width="105.56892mm"
   height="135.73489mm"
   viewBox="0 0 105.56892 135.7349"
   version="1.1"
   id="svg4508"
   inkscape:version="0.92.1 r15371"
   sodipodi:docname="FX13_reading2.svg">
  <defs
     id="defs4502" />
  <sodipodi:namedview
     id="base"
     pagecolor="#ffffff"
     bordercolor="#666666"
     borderopacity="1.0"
     inkscape:pageopacity="0.0"
     inkscape:pageshadow="2"
     inkscape:zoom="1.4"
     inkscape:cx="239.17564"
     inkscape:cy="253.00659"
     inkscape:document-units="mm"
     inkscape:current-layer="layer1"
     showgrid="false"
     inkscape:window-width="1920"
     inkscape:window-height="1016"
     inkscape:window-x="0"
     inkscape:window-y="27"
     inkscape:window-maximized="1"
     inkscape:snap-global="false"
     fit-margin-top="0"
     fit-margin-left="0"
     fit-margin-right="0"
     fit-margin-bottom="0" />
  <metadata
     id="metadata4505">
    <rdf:RDF>
      <cc:Work
         rdf:about="">
        <dc:format>image/svg+xml</dc:format>
        <dc:type
           rdf:resource="http://purl.org/dc/dcmitype/StillImage" />
        <dc:title></dc:title>
      </cc:Work>
    </rdf:RDF>
  </metadata>
  <g
     inkscape:label="Layer 1"
     inkscape:groupmode="layer"
     id="layer1"
     transform="translate(-57.751327,-88.85039)">
    <path
       style="fill:#e3dbdb;stroke:none;stroke-width:0.26458332px;stroke-linecap:butt;stroke-linejoin:miter;stroke-opacity:1"
       d="m 79.40438,183.92017 -18.099497,33.84842 102.015357,6.81669 -9.87246,-43.72086 z"
       id="path5255"
       inkscape:connector-curvature="0" />
    <path
       style="fill:#c8b7b7;fill-opacity:1;stroke:none;stroke-width:0.26458332px;stroke-linecap:butt;stroke-linejoin:miter;stroke-opacity:1"
       d="m 72.645202,216.2747 1.394843,-5.35301 -8.642993,-26.92625 -3.822862,-0.33242 z"
       id="path5251"
       inkscape:connector-curvature="0"
       sodipodi:nodetypes="ccccc" />
    <path
       style="opacity:1;fill:#d35f5f;fill-opacity:1;stroke:none;stroke-width:1.28899992;stroke-linecap:round;stroke-linejoin:round;stroke-miterlimit:4;stroke-dasharray:none;stroke-opacity:1"
       d="m 133.68858,206.07619 c 1.469,-2.14638 2.08681,-4.3503 -2.65085,-7.61759 -4.21635,-2.90775 -6.50158,-1.99128 -7.97057,0.15509 -1.46901,2.14636 -2.32516,4.1379 2.65086,7.61758 5.38386,3.76492 6.50157,1.99127 7.97056,-0.15508 z"
       id="path4485-7-5-2-2-7"
       inkscape:connector-curvature="0"
       sodipodi:nodetypes="sssss" />
    <path
       style="opacity:1;fill:#d35f5f;fill-opacity:1;stroke:none;stroke-width:1.28899992;stroke-linecap:round;stroke-linejoin:round;stroke-miterlimit:4;stroke-dasharray:none;stroke-opacity:1"
       d="m 94.161098,211.33614 c -2.409252,-0.97999 -4.140267,-2.47749 -1.990828,-7.81609 1.912937,-4.75112 4.324589,-5.24724 6.733828,-4.26725 2.409252,0.97999 4.221902,2.16887 1.990822,7.81608 -2.413941,6.11012 -4.324582,5.24724 -6.733822,4.26726 z"
       id="path4485-7-5-2-2"
       inkscape:connector-curvature="0"
       sodipodi:nodetypes="sssss" />
    <path
       style="fill:#5f8dd3;fill-opacity:1;stroke:none;stroke-width:0.26458332px;stroke-linecap:butt;stroke-linejoin:miter;stroke-opacity:1"
       d="m 96.014874,156.42006 c 0,0 2.479457,15.78086 1.743522,23.18062 -0.735935,7.39978 -4.645973,20.55362 -4.117195,20.82181 0.528778,0.26819 0.115086,3.04996 2.7978,2.95316 2.682726,-0.0968 5.776869,-0.80311 6.344489,-1.97267 0.56762,-1.16956 1.76884,-31.01322 4.57651,-31.55801 2.80768,-0.54481 9.06028,25.94556 15.95798,30.64578 6.89772,4.7002 9.03151,1.63008 7.692,-3.08923 -1.33949,-4.71932 -12.68441,-26.18826 -12.65625,-29.31899 0.0282,-3.13073 -1.48582,-7.65729 -2.17614,-8.21195 -0.6903,-0.55468 -20.162716,-3.45052 -20.162716,-3.45052 z"
       id="path4663"
       inkscape:connector-curvature="0"
       sodipodi:nodetypes="cscccccsccc" />
    <path
       style="fill:#c8b7b7;stroke:none;stroke-width:0.26458332px;stroke-linecap:butt;stroke-linejoin:miter;stroke-opacity:1"
       d="m 70.335071,154.57603 c 1.8079,0.16289 85.979619,1.99454 85.979619,1.99454 l -0.87245,29.51715 -97.524701,-6.24756 z"
       id="path5243-3"
       inkscape:connector-curvature="0"
       sodipodi:nodetypes="ccccc" />
    <path
       style="fill:#ac9393;fill-opacity:1;stroke:none;stroke-width:0.99999994px;stroke-linecap:butt;stroke-linejoin:miter;stroke-opacity:1"
       d="m 117.35938,243.9375 c -4.64886,9.07897 -11.40957,28.15984 -16.64454,48.05273 -4.565196,17.34773 3.6963,38.73953 10.26172,51.94922 l 127.73047,8.67188 c 8.83835,-18.31248 22.48983,-46.82754 27.7207,-59.19141 7.39869,-17.48787 0.31288,-43.53688 -0.54882,-46.55273 -48.95206,-0.81299 -105.15783,-1.84647 -148.51953,-2.92969 z"
       id="path5243"
       inkscape:connector-curvature="0"
       transform="matrix(0.26458333,0,0,0.26458333,57.751327,90.821851)" />
    <path
       style="opacity:1;fill:#ff5555;fill-opacity:1;stroke:none;stroke-width:1.28899992;stroke-linecap:round;stroke-linejoin:round;stroke-miterlimit:4;stroke-dasharray:none;stroke-opacity:1"
       d="m 119.10363,147.8725 c 0,10.24277 2.29645,19.32521 -12.49979,19.12758 -13.168048,-0.1759 -12.616055,-8.4197 -12.616055,-18.66248 0,-10.24278 -6.598841,-18.83158 12.616055,-18.42991 16.8863,0.35298 12.49979,7.72203 12.49979,17.96481 z"
       id="path4485-7"
       inkscape:connector-curvature="0"
       sodipodi:nodetypes="sssss" />
    <path
       style="opacity:1;fill:#d38d5f;fill-opacity:1;stroke:none;stroke-width:1.28899992;stroke-linecap:round;stroke-linejoin:round;stroke-miterlimit:4;stroke-dasharray:none;stroke-opacity:1"
       d="m 112.24336,131.07167 c 0,2.29516 -0.63203,4.20005 -5.58134,4.15577 -4.40468,-0.0394 -5.58134,-1.86061 -5.58134,-4.15577 0,-2.29517 0.35974,-4.1676 5.58134,-4.15576 5.64962,0.0128 5.58134,1.86059 5.58134,4.15576 z"
       id="path4485-7-5"
       inkscape:connector-curvature="0"
       sodipodi:nodetypes="sssss" />
    <path
       style="opacity:1;fill:#ff5555;fill-opacity:1;stroke:none;stroke-width:1.28899992;stroke-linecap:round;stroke-linejoin:round;stroke-miterlimit:4;stroke-dasharray:none;stroke-opacity:1"
       d="m 93.960173,145.53201 c -3.467135,6.69042 -4.845021,13.50203 -8.37926,11.1276 -3.145328,-2.11317 -1.250349,-7.95574 2.216782,-14.64615 3.467133,-6.69042 6.557426,-11.98537 10.338815,-9.58198 4.09135,2.60036 -0.709206,6.41013 -4.176337,13.10053 z"
       id="path4485-7-3"
       inkscape:connector-curvature="0"
       sodipodi:nodetypes="sssss" />
    <path
       style="opacity:1;fill:#ff5555;fill-opacity:1;stroke:none;stroke-width:1.28899992;stroke-linecap:round;stroke-linejoin:round;stroke-miterlimit:4;stroke-dasharray:none;stroke-opacity:1"
       d="m 118.33284,145.53201 c 3.46714,6.69042 4.84503,13.50203 8.37927,11.1276 3.14532,-2.11317 1.25035,-7.95574 -2.21679,-14.64615 -3.46713,-6.69042 -6.55743,-11.98537 -10.33881,-9.58198 -4.09136,2.60036 0.70921,6.41013 4.17633,13.10053 z"
       id="path4485-7-3-5"
       inkscape:connector-curvature="0"
       sodipodi:nodetypes="sssss" />
    <path
       style="opacity:1;fill:#ff5555;fill-opacity:1;stroke:none;stroke-width:1.28899992;stroke-linecap:round;stroke-linejoin:round;stroke-miterlimit:4;stroke-dasharray:none;stroke-opacity:1"
       d="m 85.006126,143.38257 c 2.62804,5.90342 8.795814,9.83384 1.943372,13.79344 -3.280914,1.89582 -6.509685,-4.74143 -8.788885,-11.9239 -2.279209,-7.18246 -3.838143,-13.11173 0.535154,-14.08614 4.731765,-1.05429 3.245761,5.33251 6.310359,12.2166 z"
       id="path4485-7-3-6"
       inkscape:connector-curvature="0"
       sodipodi:nodetypes="sssss" />
    <path
       style="opacity:1;fill:#ff5555;fill-opacity:1;stroke:none;stroke-width:1.28899992;stroke-linecap:round;stroke-linejoin:round;stroke-miterlimit:4;stroke-dasharray:none;stroke-opacity:1"
       d="m 126.91232,143.38257 c -2.62804,5.90342 -8.7958,9.83384 -1.94336,13.79344 3.28091,1.89582 6.50967,-4.74143 8.78888,-11.9239 2.27921,-7.18246 3.83814,-13.11173 -0.53516,-14.08614 -4.73175,-1.05429 -3.24575,5.33251 -6.31036,12.2166 z"
       id="path4485-7-3-6-9"
       inkscape:connector-curvature="0"
       sodipodi:nodetypes="sssss" />
    <path
       style="fill:#ac9393;stroke:none;stroke-width:0.26458332px;stroke-linecap:butt;stroke-linejoin:miter;stroke-opacity:1"
       d="m 58.018597,179.64137 0.831058,4.65226 96.467775,6.6827 0.1662,-4.98635 z"
       id="path5245"
       inkscape:connector-curvature="0"
       sodipodi:nodetypes="ccccc" />
    <path
       style="fill:#ac9393;fill-opacity:1;stroke:none;stroke-width:0.26458332px;stroke-linecap:butt;stroke-linejoin:miter;stroke-opacity:1"
       d="m 58.683443,183.78036 c 1.16348,0 9.705414,32.70941 9.705414,32.70941 l 4.321497,-0.16621 -10.138896,-31.91258 z"
       id="path5247"
       inkscape:connector-curvature="0"
       sodipodi:nodetypes="ccccc" />
    <path
       style="fill:#ac9393;fill-opacity:1;stroke:none;stroke-width:0.26458332px;stroke-linecap:butt;stroke-linejoin:miter;stroke-opacity:1"
       d="m 150.49729,190.31148 c 1.66211,-0.16622 4.82013,-0.16622 4.82013,-0.16622 l -1.66211,28.42216 -4.3215,-0.66485 z"
       id="path5249"
       inkscape:connector-curvature="0" />
    <path
       style="fill:#916f6f;fill-opacity:1;stroke:none;stroke-width:0.99999994px;stroke-linecap:butt;stroke-linejoin:miter;stroke-opacity:1"
       d="m 113.37695,342.71094 -2.14785,-0.0342 13.81973,19.53027 103.4414,6.93164 c 3.50174,-6.79062 10.46934,-18.04257 10.46934,-18.04257 l -11.52402,-0.81876 z"
       transform="matrix(0.26458333,0,0,0.26458333,57.751327,90.821851)"
       id="path5245-6"
       inkscape:connector-curvature="0"
       sodipodi:nodetypes="ccccccc" />
    <path
       style="fill:#e6e6e6;fill-opacity:1;stroke:none;stroke-width:0.26458332px;stroke-linecap:butt;stroke-linejoin:miter;stroke-opacity:1"
       d="m 96.35351,138.95052 c 0.603522,0.0913 9.96013,0.71933 9.96013,0.71933 0,0 -3.60265,3.33988 -5.11994,3.23804 -1.517283,-0.10184 -5.072873,-3.89678 -4.84019,-3.95737 z"
       id="path5213"
       inkscape:connector-curvature="0" />
    <path
       style="fill:#e6e6e6;fill-opacity:1;stroke:none;stroke-width:0.26458332px;stroke-linecap:butt;stroke-linejoin:miter;stroke-opacity:1"
       d="m 127.76363,128.53556 c -0.46537,0.12118 -27.34232,14.90473 -27.26798,14.55409 0.0743,-0.35064 19.85128,-17.5921 19.85128,-17.5921 z"
       id="path5211"
       inkscape:connector-curvature="0" />
    <path
       style="fill:#e6e6e6;fill-opacity:1;stroke:none;stroke-width:0.26458332px;stroke-linecap:butt;stroke-linejoin:miter;stroke-opacity:1"
       d="m 87.68743,125.2706 c -0.592589,0.14612 -4.389807,0.92628 -4.389807,0.92628 0,0 17.159827,18.29465 16.892187,17.99628 C 99.922161,143.89478 87.68743,125.2706 87.68743,125.2706 Z"
       id="path5165-7"
       inkscape:connector-curvature="0"
       inkscape:transform-center-x="13.731588"
       inkscape:transform-center-y="-24.431478" />
    <path
       style="fill:#37c871;fill-opacity:1;stroke:none;stroke-width:0.26458332px;stroke-linecap:butt;stroke-linejoin:miter;stroke-opacity:1"
       d="m 129.39574,125.67283 c -0.39977,0.8322 -23.76824,14.1606 -23.76824,14.1606 0,0 1.19497,40.49777 1.36818,40.07084 0.1732,-0.42693 20.60666,-17.79361 20.75821,-18.16717 0.15156,-0.37357 1.64185,-36.06427 1.64185,-36.06427 z"
       id="path4532"
       inkscape:connector-curvature="0"
       sodipodi:nodetypes="ccssc" />
    <path
       style="fill:#32b96a;fill-opacity:1;stroke:none;stroke-width:0.26458332px;stroke-linecap:butt;stroke-linejoin:miter;stroke-opacity:1"
       d="m 106.0678,140.79553 c 0.0106,0.35996 0.0525,1.75312 0.092,3.0701 0.7524,1.07688 1.46007,2.53657 1.92081,4.5067 1.46056,6.24533 1.6676,17.53795 1.6676,17.53795 0,0 1.26209,-2.15056 1.52549,-3.04736 0.26341,-0.89679 -2.1333,-17.41695 -3.40651,-20.39824 -0.3287,-0.76966 -0.99428,-1.30165 -1.79937,-1.66915 z"
       id="path4532-6"
       inkscape:connector-curvature="0" />
    <path
       style="fill:#00aa88;stroke:none;stroke-width:0.26458332px;stroke-linecap:butt;stroke-linejoin:miter;stroke-opacity:1"
       d="m 106.05247,139.55713 c 0,0 -2.69938,1.83079 -5.45666,1.83515 -2.991384,0.005 -4.193467,-2.24545 -4.3242,-2.37507 0.171678,-0.1168 4.68268,40.884 4.68268,40.884 0,0 1.55104,0.84524 2.68332,1.11816 1.13227,0.2729 3.80121,-1.37272 3.80121,-1.37272 z"
       id="path4534"
       inkscape:connector-curvature="0"
       sodipodi:nodetypes="csccccc" />
    <path
       style="fill:#37c871;fill-opacity:1;stroke:none;stroke-width:0.26458332px;stroke-linecap:butt;stroke-linejoin:miter;stroke-opacity:1"
       d="m 96.376928,139.35853 -13.807911,-14.54228 10.312045,42.78332 8.188018,12.36153 z"
       id="path5163"
       inkscape:connector-curvature="0" />
    <path
       style="fill:#c83737;fill-opacity:1;stroke:none;stroke-width:0.26458332px;stroke-linecap:butt;stroke-linejoin:miter;stroke-opacity:1"
       d="m 104.12171,140.15778 c 0,0 3.93781,1.12797 5.39838,7.3733 1.46056,6.24533 1.6679,17.53775 1.6679,17.53775 0,0 1.26204,-2.15067 1.52544,-3.04747 0.26341,-0.89679 -2.13326,-17.41657 -3.40647,-20.39786 -1.27322,-2.98129 -7.58558,-2.4143 -7.58558,-2.4143 z"
       id="path5215"
       inkscape:connector-curvature="0"
       sodipodi:nodetypes="csccscc" />
    <path
       style="opacity:1;fill:#d38d5f;fill-opacity:1;stroke:none;stroke-width:1.28899992;stroke-linecap:round;stroke-linejoin:round;stroke-miterlimit:4;stroke-dasharray:none;stroke-opacity:1"
       d="m 132.71791,136.48357 c 2.3274,-0.45283 4.11455,-1.38185 2.93833,-5.70503 -1.0468,-3.84745 -3.1625,-4.51803 -5.48988,-4.0652 -2.32741,0.45283 -4.1439,1.13712 -2.93834,5.70505 1.30437,4.94235 3.16251,4.51802 5.48989,4.06518 z"
       id="path4485-7-5-2-1"
       inkscape:connector-curvature="0"
       sodipodi:nodetypes="sssss" />
    <path
       style="opacity:1;fill:#d38d5f;fill-opacity:1;stroke:none;stroke-width:1.28899992;stroke-linecap:round;stroke-linejoin:round;stroke-miterlimit:4;stroke-dasharray:none;stroke-opacity:1"
       d="m 78.860496,136.25688 c -2.327389,-0.45283 -4.114551,-1.38185 -2.938329,-5.70503 1.046811,-3.84745 3.162503,-4.51803 5.489893,-4.0652 2.327389,0.45283 4.143891,1.13712 2.938329,5.70503 -1.30437,4.94236 -3.162508,4.51803 -5.489893,4.0652 z"
       id="path4485-7-5-2"
       inkscape:connector-curvature="0"
       sodipodi:nodetypes="sssss" />
    <path
       style="opacity:1;fill:#cf8350;fill-opacity:1;stroke:none;stroke-width:4.87181091;stroke-linecap:round;stroke-linejoin:round;stroke-miterlimit:4;stroke-dasharray:none;stroke-opacity:1"
       d="m 184.85938,136.41797 c -19.73519,-0.0447 -21.09571,7.03237 -21.09571,15.70703 0,0.94608 0.0658,1.86662 0.18164,2.76367 a 30.052037,12.626906 0 0 0 19.90235,3.18164 30.052037,12.626906 0 0 0 22.05664,-4.07226 c 0.031,-0.61613 0.0508,-1.23885 0.0508,-1.87305 0,-8.67466 0.25719,-15.65865 -21.0957,-15.70703 z"
       id="path4485-7-5-3"
       inkscape:connector-curvature="0"
       transform="matrix(0.26458333,0,0,0.26458333,57.751327,90.821851)" />
    <path
       style="opacity:1;fill:#d38d5f;fill-opacity:1;stroke:none;stroke-width:1.28899992;stroke-linecap:round;stroke-linejoin:round;stroke-miterlimit:4;stroke-dasharray:none;stroke-opacity:1"
       d="m 123.5803,112.93123 a 16.685762,18.546198 0 0 1 -16.68576,18.5462 16.685762,18.546198 0 0 1 -16.685764,-18.5462 16.685762,18.546198 0 0 1 16.685764,-18.546199 16.685762,18.546198 0 0 1 16.68576,18.546199 z"
       id="path4485-6"
       inkscape:connector-curvature="0" />
    <path
       style="fill:none;stroke:#c83737;stroke-width:1.16499996;stroke-linecap:round;stroke-linejoin:miter;stroke-miterlimit:4;stroke-dasharray:none;stroke-opacity:1"
       d="m 102.30159,122.05898 c 0,0 0.93022,2.09299 4.18598,1.86044 3.25576,-0.23255 4.76735,-2.5581 4.76735,-2.5581"
       id="path4487"
       inkscape:connector-curvature="0" />
    <path
       style="fill:none;stroke:#483737;stroke-width:1.16499996;stroke-linecap:round;stroke-linejoin:miter;stroke-miterlimit:4;stroke-dasharray:none;stroke-opacity:1"
       d="m 97.756201,115.08842 c 0,0 0.292113,0.39224 1.314514,0.34865 1.022395,-0.0436 1.497085,-0.47939 1.497085,-0.47939"
       id="path4487-3"
       inkscape:connector-curvature="0" />
    <path
       style="fill:none;stroke:#483737;stroke-width:1.16499996;stroke-linecap:round;stroke-linejoin:miter;stroke-miterlimit:4;stroke-dasharray:none;stroke-opacity:1"
       d="m 111.36037,114.50835 c 0,0 0.29212,0.39224 1.31452,0.34866 1.0224,-0.0436 1.49709,-0.4794 1.49709,-0.4794"
       id="path4487-3-6"
       inkscape:connector-curvature="0" />
    <path
       style="fill:#241c1c;stroke:none;stroke-width:0.26458332px;stroke-linecap:butt;stroke-linejoin:miter;stroke-opacity:1"
       d="m 115.26677,102.73911 c 0,0 -13.30773,-0.76456 -17.155461,3.66003 -7.824228,7.12999 2.992551,22.77458 2.671021,24.38869 -0.32153,1.61411 -14.122622,-5.99145 -13.696437,-23.04021 0.278464,-11.139438 4.416204,-15.743414 10.454483,-17.686248 12.437824,-4.001906 19.765624,3.196781 19.765624,3.196781 10.46808,-0.904685 11.95715,4.934833 11.13981,13.967057 -1.27496,14.08932 -16.33264,25.7837 -16.87063,23.94095 -0.53799,-1.84275 9.16779,-15.69403 7.4731,-20.14188 -4.356,-7.25958 -3.78151,-8.28517 -3.78151,-8.28517 z"
       id="path4695"
       inkscape:connector-curvature="0"
       sodipodi:nodetypes="cczsscszcc" />
  </g>
</svg>
