<svg width="74" height="75" viewBox="0 0 74 75" fill="none" xmlns="http://www.w3.org/2000/svg">
  <path d="M15.178 52.5306L2.49094 71.2334L74 75L67.0798 50.8421L15.178 52.5306Z" fill="#E3DBDB"/>
  <path d="M10.4401 70.408L11.4178 67.4502L5.35938 52.5722L2.67969 52.3885L10.4401 70.408Z" fill="#C8B7B7"/>
  <path d="M53.2293 64.7728C54.259 63.5869 54.6921 62.3691 51.3711 60.5637C48.4156 58.9571 46.8137 59.4635 45.784 60.6494C44.7543 61.8354 44.1542 62.9358 47.6422 64.8585C51.4161 66.9388 52.1996 65.9588 53.2293 64.7728Z" fill="#D35F5F"/>
  <path d="M25.5219 67.6792C23.8331 67.1377 22.6198 66.3103 24.1264 63.3605C25.4673 60.7352 27.1578 60.4611 28.8466 61.0026C30.5354 61.5441 31.806 62.201 30.2421 65.3214C28.55 68.6975 27.2107 68.2207 25.5219 67.6792Z" fill="#D35F5F"/>
  <path d="M26.8214 37.3355C26.8214 37.3355 28.5594 46.0552 28.0435 50.1439C27.5277 54.2326 24.7869 61.5007 25.1575 61.6489C25.5282 61.7971 25.2382 63.3342 27.1187 63.2807C28.9992 63.2272 31.168 62.8369 31.5659 62.1907C31.9638 61.5445 32.8058 45.0544 34.7739 44.7534C36.742 44.4523 41.1248 59.0895 45.9599 61.6866C50.7949 64.2837 52.2906 62.5873 51.3517 59.9797C50.4128 57.372 42.4604 45.5094 42.4801 43.7796C42.4999 42.0497 41.4386 39.5485 40.9547 39.2421C40.4708 38.9356 26.8214 37.3355 26.8214 37.3355Z" fill="#5F8DD3"/>
  <path d="M8.82076 36.3166C10.088 36.4066 69.0894 37.4186 69.0894 37.4186L68.4778 53.7283L0.116516 50.2762L8.82076 36.3166Z" fill="#C8B7B7"/>
  <path d="M21.7659 36.7517C20.9037 38.079 19.6498 40.8686 18.6789 43.7768C17.8322 46.313 19.3644 49.4403 20.5821 51.3715L44.2714 52.6393C45.9106 49.9621 48.4424 45.7933 49.4126 43.9858C50.7848 41.4292 49.4706 37.6209 49.3108 37.18C40.232 37.0612 29.8079 36.9101 21.7659 36.7517V36.7517Z" fill="#AC9393"/>
  <path d="M43.0058 32.6125C43.0058 38.2722 44.6155 43.2906 34.2439 43.1814C25.0135 43.0843 25.4005 38.5292 25.4005 32.8695C25.4005 27.2099 20.7749 22.4642 34.2439 22.6861C46.0806 22.8812 43.0058 26.9529 43.0058 32.6125Z" fill="#FF5555"/>
  <path d="M38.197 23.3293C38.197 24.5975 37.7539 25.65 34.2846 25.6255C31.1971 25.6038 30.3723 24.5975 30.3723 23.3293C30.3723 22.0611 30.6245 21.0265 34.2846 21.033C38.2448 21.0401 38.197 22.0611 38.197 23.3293Z" fill="#D38D5F"/>
  <path d="M25.3811 31.3193C22.9508 35.0161 21.9849 38.7798 19.5075 37.4678C17.3028 36.3002 18.6311 33.0719 21.0614 29.3751C23.4918 25.6784 25.6579 22.7526 28.3086 24.0806C31.1765 25.5174 27.8114 27.6225 25.3811 31.3193V31.3193Z" fill="#FF5555"/>
  <path d="M42.4655 31.3193C44.8958 35.0161 45.8617 38.7798 48.339 37.4678C50.5438 36.3002 49.2155 33.0719 46.7852 29.3751C44.3548 25.6784 42.1886 22.7526 39.538 24.0806C36.6701 25.5174 40.0352 27.6225 42.4655 31.3193Z" fill="#FF5555"/>
  <path d="M19.1046 30.1316C20.9468 33.3935 25.2702 35.5653 20.4669 37.7532C18.1671 38.8007 15.9038 35.1333 14.3062 31.1646C12.7085 27.196 11.6158 23.9198 14.6813 23.3814C17.9981 22.7988 16.9565 26.3278 19.1046 30.1316Z" fill="#FF5555"/>
  <path d="M48.4794 30.1316C46.6372 33.3935 42.3139 35.5653 47.1172 37.7532C49.417 38.8007 51.6802 35.1333 53.2779 31.1646C54.8755 27.196 55.9683 23.9198 52.9027 23.3814C49.5859 22.7988 50.6276 26.3278 48.4794 30.1316Z" fill="#FF5555"/>
  <path d="M0.187347 50.1664L0.769889 52.7369L68.3903 56.4295L68.5068 53.6743L0.187347 50.1664Z" fill="#AC9393"/>
  <path d="M0.653381 52.4533C1.46894 52.4533 7.45653 70.5268 7.45653 70.5268L10.4857 70.435L3.37874 52.8018L0.653381 52.4533Z" fill="#AC9393"/>
  <path d="M65.0116 56.0621C66.1767 55.9702 68.3903 55.9702 68.3903 55.9702L67.2252 71.6748L64.196 71.3075L65.0116 56.0621Z" fill="#AC9393"/>
  <path d="M21.0273 51.1919L20.6289 51.1869L23.192 54.0421L42.3766 55.0555C43.026 54.0628 44.3182 52.4178 44.3182 52.4178L42.181 52.2981L21.0273 51.1919Z" fill="#916F6F"/>
  <path d="M27.0588 27.6827C27.4818 27.7332 34.0404 28.0802 34.0404 28.0802C34.0404 28.0802 31.5151 29.9256 30.4516 29.8693C29.388 29.8131 26.8957 27.7162 27.0588 27.6827V27.6827Z" fill="#E6E6E6"/>
  <path d="M49.0761 21.9279C48.7499 21.9949 29.9101 30.1635 29.9622 29.9698C30.0143 29.776 43.8773 20.2493 43.8773 20.2493L49.0761 21.9279Z" fill="#E6E6E6"/>
  <path d="M20.9841 20.1239C20.5688 20.2046 17.907 20.6357 17.907 20.6357C17.907 20.6357 29.9355 30.7444 29.7479 30.5795C29.5602 30.4147 20.9841 20.1239 20.9841 20.1239Z" fill="#E6E6E6"/>
  <path d="M50.2202 20.3462C49.9399 20.806 33.5595 28.1706 33.5595 28.1706C33.5595 28.1706 34.3971 50.5475 34.5185 50.3116C34.6399 50.0757 48.9631 40.4798 49.0693 40.2734C49.1755 40.067 50.2202 20.3462 50.2202 20.3462Z" fill="#37C871"/>
  <path d="M33.8681 28.7022C33.8755 28.9011 33.9049 29.6709 33.9326 30.3986C34.46 30.9936 34.956 31.8001 35.279 32.8887C36.3028 36.3396 36.4479 42.5793 36.4479 42.5793C36.4479 42.5793 37.3326 41.391 37.5172 40.8955C37.7019 40.3999 36.0219 31.2718 35.1294 29.6245C34.899 29.1992 34.4325 28.9052 33.8681 28.7022H33.8681Z" fill="#32B96A"/>
  <path d="M33.8574 28.0179C33.8574 28.0179 31.9652 29.0295 30.0325 29.0319C27.9356 29.0347 27.093 27.7912 27.0013 27.7196C27.1217 27.655 30.2837 50.3099 30.2837 50.3099C30.2837 50.3099 31.371 50.7769 32.1646 50.9277C32.9583 51.0785 34.8292 50.1693 34.8292 50.1693L33.8574 28.0179Z" fill="#00AA88"/>
  <path d="M27.0752 27.9082L17.3963 19.8729L24.6247 43.5127L30.3642 50.343L27.0752 27.9082Z" fill="#37C871"/>
  <path d="M32.504 28.3498C32.504 28.3498 35.2642 28.973 36.288 32.4239C37.3118 35.8747 37.4572 42.1143 37.4572 42.1143C37.4572 42.1143 38.3418 40.926 38.5264 40.4304C38.7111 39.9349 37.0311 30.807 36.1386 29.1597C35.2461 27.5124 30.8214 27.8256 30.8214 27.8256L32.504 28.3498Z" fill="#C83737"/>
  <path d="M52.5489 26.3196C54.1803 26.0694 55.433 25.556 54.6085 23.1673C53.8748 21.0414 52.3917 20.6709 50.7603 20.9211C49.1289 21.1713 47.8556 21.5494 48.7007 24.0734C49.615 26.8043 50.9175 26.5698 52.5489 26.3196Z" fill="#D38D5F"/>
  <path d="M14.7968 26.1943C13.1653 25.9441 11.9126 25.4308 12.7371 23.042C13.4709 20.9161 14.9539 20.5456 16.5853 20.7958C18.2167 21.046 19.49 21.4241 18.645 23.9481C17.7307 26.679 16.4282 26.4446 14.7968 26.1943Z" fill="#D38D5F"/>
  <path d="M34.2846 21.033C30.6245 21.0264 30.3722 22.0611 30.3722 23.3292C30.3722 23.4676 30.3844 23.6021 30.4058 23.7333C31.4236 24.0323 32.7364 24.1978 34.097 24.1984C34.866 24.198 35.6264 24.1449 36.3304 24.0425C37.0344 23.94 37.6667 23.7904 38.1877 23.6031C38.1935 23.513 38.1971 23.422 38.1971 23.3292C38.1971 22.0611 38.2448 21.04 34.2846 21.033H34.2846Z" fill="#CF8350"/>
  <path d="M46.1438 13.3058C46.1438 16.0237 44.9115 18.6302 42.718 20.552C40.5246 22.4738 37.5496 23.5535 34.4476 23.5535C32.9117 23.5535 31.3908 23.2884 29.9717 22.7734C28.5527 22.2584 27.2633 21.5036 26.1772 20.552C25.0912 19.6004 24.2296 18.4707 23.6418 17.2274C23.0541 15.9841 22.7515 14.6516 22.7515 13.3058C22.7515 11.9601 23.0541 10.6275 23.6418 9.38422C24.2296 8.14091 25.0912 7.01122 26.1772 6.05963C27.2633 5.10805 28.5527 4.35321 29.9717 3.83822C31.3908 3.32323 32.9117 3.05817 34.4476 3.05817C37.5496 3.05817 40.5246 4.13783 42.718 6.05963C44.9115 7.98144 46.1438 10.588 46.1438 13.3058Z" fill="#D38D5F"/>
  <path d="M31.2281 18.3493C31.2281 18.3493 31.8802 19.5058 34.1624 19.3773C36.4445 19.2488 37.5041 17.9638 37.5041 17.9638" stroke="#C83737" stroke-width="1.165" stroke-linecap="round"/>
  <path d="M28.042 14.4978C28.042 14.4978 28.2468 14.7145 28.9634 14.6904C29.6801 14.6663 30.0128 14.4255 30.0128 14.4255" stroke="#483737" stroke-width="1.165" stroke-linecap="round"/>
  <path d="M37.578 14.1772C37.578 14.1772 37.7828 14.394 38.4994 14.3699C39.2161 14.3458 39.5488 14.105 39.5488 14.105" stroke="#483737" stroke-width="1.165" stroke-linecap="round"/>
  <path d="M40.3163 7.67418C40.3163 7.67418 30.988 7.25172 28.2909 9.69652C22.8064 13.6362 30.3886 22.2806 30.1632 23.1724C29.9378 24.0643 20.2637 19.8619 20.5625 10.4416C20.7577 4.28655 23.6581 1.74263 27.8907 0.669125C36.6092 -1.54212 41.7457 2.4355 41.7457 2.4355C49.0834 1.93562 50.1272 5.16223 49.5543 10.153C48.6606 17.938 38.1057 24.3997 37.7286 23.3815C37.3515 22.3633 44.1549 14.7098 42.967 12.2521C39.9136 8.24087 40.3163 7.67418 40.3163 7.67418V7.67418Z" fill="#241C1C"/>
</svg>
