<svg width="16" height="15" viewBox="0 0 16 15" fill="none" xmlns="http://www.w3.org/2000/svg">
  <path d="M8.00179 3.65419C5.73162 3.65419 3.9005 5.37125 3.9005 7.5C3.9005 9.62875 5.73162 11.3458 8.00179 11.3458C10.2719 11.3458 12.1031 9.62875 12.1031 7.5C12.1031 5.37125 10.2719 3.65419 8.00179 3.65419ZM8.00179 10.0003C6.53475 10.0003 5.33542 8.879 5.33542 7.5C5.33542 6.121 6.53118 4.99972 8.00179 4.99972C9.47239 4.99972 10.6682 6.121 10.6682 7.5C10.6682 8.879 9.46882 10.0003 8.00179 10.0003V10.0003ZM13.2274 3.49688C13.2274 3.99559 12.7991 4.3939 12.2708 4.3939C11.739 4.3939 11.3142 3.99225 11.3142 3.49688C11.3142 3.00151 11.7426 2.59985 12.2708 2.59985C12.7991 2.59985 13.2274 3.00151 13.2274 3.49688ZM15.9438 4.40729C15.8831 3.20568 15.5904 2.1413 14.6516 1.26436C13.7165 0.387426 12.5814 0.112964 11.2999 0.0527167C9.97925 -0.0175722 6.02075 -0.0175722 4.70006 0.0527167C3.4222 0.109617 2.28712 0.384079 1.34835 1.26102C0.409593 2.13796 0.120468 3.20233 0.0562186 4.40394C-0.0187395 5.64236 -0.0187395 9.35429 0.0562186 10.5927C0.116899 11.7943 0.409593 12.8587 1.34835 13.7356C2.28712 14.6126 3.41863 14.887 4.70006 14.9473C6.02075 15.0176 9.97925 15.0176 11.2999 14.9473C12.5814 14.8904 13.7165 14.6159 14.6516 13.7356C15.5868 12.8587 15.8795 11.7943 15.9438 10.5927C16.0187 9.35429 16.0187 5.64571 15.9438 4.40729V4.40729ZM14.2376 11.9215C13.9592 12.5775 13.4202 13.083 12.717 13.3474C11.664 13.739 9.16542 13.6486 8.00179 13.6486C6.83815 13.6486 4.33597 13.7356 3.28656 13.3474C2.58695 13.0863 2.04796 12.5809 1.76598 11.9215C1.34835 10.9341 1.44473 8.59115 1.44473 7.5C1.44473 6.40885 1.35192 4.06253 1.76598 3.07849C2.0444 2.42246 2.58338 1.91705 3.28656 1.65263C4.33954 1.26102 6.83815 1.35139 8.00179 1.35139C9.16542 1.35139 11.6676 1.26436 12.717 1.65263C13.4166 1.9137 13.9556 2.41911 14.2376 3.07849C14.6552 4.06588 14.5588 6.40885 14.5588 7.5C14.5588 8.59115 14.6552 10.9375 14.2376 11.9215Z" fill="#C4C4C4"/>
</svg>
