<svg width="67" height="46" viewBox="0 0 67 46" fill="none" xmlns="http://www.w3.org/2000/svg">
  <path d="M3.503 21L5.455 10.488C6.511 10.3707 7.807 10.312 9.343 10.312C10.8897 10.312 12.0203 10.536 12.735 10.984C13.4497 11.432 13.807 12.1093 13.807 13.016C13.807 13.912 13.5723 14.6427 13.103 15.208C12.6443 15.7733 12.015 16.1467 11.215 16.328C11.3963 17.2133 11.695 18.0133 12.111 18.728C12.495 19.4 12.911 19.8427 13.359 20.056C13.199 20.504 12.9537 20.824 12.623 21.016C12.303 21.2187 11.9083 21.32 11.439 21.32C10.9803 21.32 10.5697 21.1867 10.207 20.92C9.84433 20.6427 9.519 20.2533 9.231 19.752C8.623 18.664 8.287 17.2613 8.223 15.544H8.335C9.12433 15.5227 9.71633 15.3093 10.111 14.904C10.5057 14.488 10.703 13.848 10.703 12.984C10.703 11.9067 10.2497 11.3467 9.343 11.304H8.991C8.895 11.304 8.82033 11.3093 8.767 11.32L6.927 21H3.503ZM21.0176 18.296C21.2843 18.4773 21.4176 18.7707 21.4176 19.176C21.4176 19.5707 21.3163 19.896 21.1136 20.152C20.911 20.408 20.6443 20.6213 20.3136 20.792C19.631 21.144 18.9216 21.32 18.1856 21.32C17.4496 21.32 16.863 21.24 16.4256 21.08C15.999 20.92 15.6416 20.6907 15.3536 20.392C14.7883 19.8267 14.5056 19.0267 14.5056 17.992C14.5056 16.3813 14.943 15.0853 15.8176 14.104C16.7563 13.048 18.0416 12.52 19.6736 12.52C20.687 12.52 21.4443 12.7333 21.9456 13.16C22.319 13.48 22.5056 13.9013 22.5056 14.424C22.5056 16.3013 20.8843 17.24 17.6416 17.24C17.599 17.5173 17.5776 17.7733 17.5776 18.008C17.5776 18.4987 17.6843 18.84 17.8976 19.032C18.1216 19.2133 18.4363 19.304 18.8416 19.304C19.247 19.304 19.663 19.2133 20.0896 19.032C20.527 18.84 20.8363 18.5947 21.0176 18.296ZM17.7536 16.552C18.511 16.552 19.1083 16.3173 19.5456 15.848C19.983 15.4 20.2016 14.8187 20.2016 14.104C20.2016 13.8587 20.1536 13.672 20.0576 13.544C19.9723 13.4053 19.839 13.336 19.6576 13.336C19.4763 13.336 19.3056 13.3733 19.1456 13.448C18.9963 13.512 18.8416 13.6613 18.6816 13.896C18.287 14.4293 17.9776 15.3147 17.7536 16.552ZM23.7413 20.52C23.4959 20.2427 23.3146 19.8853 23.1973 19.448C23.0906 19.0107 23.0373 18.4347 23.0373 17.72C23.0373 17.0053 23.1599 16.3227 23.4053 15.672C23.6506 15.0213 23.9973 14.4613 24.4453 13.992C25.3626 13.0107 26.5786 12.52 28.0933 12.52C28.6373 12.52 29.1066 12.6107 29.5013 12.792L32.2373 12.52L31.0533 18.76C31.0213 18.888 31.0052 19.0693 31.0052 19.304C31.0052 19.5387 31.0746 19.7307 31.2133 19.88C31.3626 20.0293 31.5439 20.1147 31.7573 20.136C31.6506 20.4987 31.3999 20.7867 31.0052 21C30.6213 21.2133 30.2106 21.32 29.7733 21.32C29.3359 21.32 28.9679 21.2347 28.6693 21.064C28.3813 20.904 28.1946 20.6853 28.1093 20.408C27.9386 20.6747 27.6719 20.8933 27.3093 21.064C26.9466 21.2347 26.5199 21.32 26.0293 21.32C25.5493 21.32 25.1119 21.256 24.7173 21.128C24.3226 21 23.9973 20.7973 23.7413 20.52ZM27.1173 14.024C26.9999 14.216 26.8879 14.4773 26.7812 14.808C26.6746 15.128 26.5306 15.7253 26.3493 16.6C26.1786 17.464 26.0933 18.2053 26.0933 18.824C26.0933 19.4427 26.1413 19.8427 26.2373 20.024C26.3333 20.2053 26.4666 20.296 26.6373 20.296C26.9786 20.296 27.2719 20.136 27.5173 19.816C27.7733 19.4853 27.9493 19.032 28.0453 18.456L28.8933 13.768C28.6693 13.576 28.4239 13.48 28.1573 13.48C27.9013 13.48 27.6933 13.5227 27.5333 13.608C27.3839 13.6933 27.2453 13.832 27.1173 14.024ZM38.0776 12.52C38.4616 12.52 38.803 12.5627 39.1016 12.648C39.1123 12.6053 39.1283 12.5253 39.1496 12.408L39.2296 11.912C39.2723 11.6987 39.3256 11.416 39.3896 11.064L39.6456 9.8L42.8296 9.48L41.0536 18.76C41.043 18.824 41.0376 18.9093 41.0376 19.016V19.272C41.0376 19.5067 41.0963 19.7147 41.2136 19.896C41.331 20.0667 41.4856 20.152 41.6776 20.152C41.4643 20.6533 41.0323 21.0107 40.3816 21.224C40.1576 21.288 39.8856 21.32 39.5656 21.32C39.2563 21.32 38.9576 21.2347 38.6696 21.064C38.3816 20.904 38.195 20.6853 38.1096 20.408C37.939 20.6853 37.683 20.904 37.3416 21.064C37.0003 21.2347 36.579 21.32 36.0776 21.32C35.587 21.32 35.1336 21.256 34.7176 21.128C34.3123 21 33.9816 20.7973 33.7256 20.52C33.2563 19.976 33.0216 19.0853 33.0216 17.848C33.0216 16.248 33.491 14.9627 34.4296 13.992C35.3683 13.0107 36.5843 12.52 38.0776 12.52ZM37.9656 13.48C37.571 13.48 37.267 13.6933 37.0536 14.12C36.8403 14.5467 36.6216 15.288 36.3976 16.344C36.1843 17.4 36.0776 18.4027 36.0776 19.352C36.0776 20.0027 36.2696 20.328 36.6536 20.328C36.995 20.328 37.283 20.1573 37.5176 19.816C37.763 19.4747 37.9336 19.0213 38.0296 18.456L38.8936 13.768C38.6696 13.576 38.3603 13.48 37.9656 13.48ZM49.5176 18.296C49.7843 18.4773 49.9176 18.7707 49.9176 19.176C49.9176 19.5707 49.8163 19.896 49.6136 20.152C49.411 20.408 49.1443 20.6213 48.8136 20.792C48.131 21.144 47.4216 21.32 46.6856 21.32C45.9496 21.32 45.363 21.24 44.9256 21.08C44.499 20.92 44.1416 20.6907 43.8536 20.392C43.2883 19.8267 43.0056 19.0267 43.0056 17.992C43.0056 16.3813 43.443 15.0853 44.3176 14.104C45.2563 13.048 46.5416 12.52 48.1736 12.52C49.187 12.52 49.9443 12.7333 50.4456 13.16C50.819 13.48 51.0056 13.9013 51.0056 14.424C51.0056 16.3013 49.3843 17.24 46.1416 17.24C46.099 17.5173 46.0776 17.7733 46.0776 18.008C46.0776 18.4987 46.1843 18.84 46.3976 19.032C46.6216 19.2133 46.9363 19.304 47.3416 19.304C47.747 19.304 48.163 19.2133 48.5896 19.032C49.027 18.84 49.3363 18.5947 49.5176 18.296ZM46.2536 16.552C47.011 16.552 47.6083 16.3173 48.0456 15.848C48.483 15.4 48.7016 14.8187 48.7016 14.104C48.7016 13.8587 48.6536 13.672 48.5576 13.544C48.4723 13.4053 48.339 13.336 48.1576 13.336C47.9763 13.336 47.8056 13.3733 47.6456 13.448C47.4963 13.512 47.3416 13.6613 47.1816 13.896C46.787 14.4293 46.4776 15.3147 46.2536 16.552ZM56.5613 16.504C56.9453 15.8213 57.1373 15.1333 57.1373 14.44C57.1373 13.9813 56.9719 13.752 56.6413 13.752C56.3853 13.752 56.1239 13.9707 55.8573 14.408C55.5799 14.8453 55.3986 15.3467 55.3133 15.912L54.4813 21L51.1692 21.32L52.8013 12.84L55.4413 12.52L55.1533 14.136C55.6759 13.0587 56.5239 12.52 57.6973 12.52C58.3159 12.52 58.7906 12.68 59.1213 13C59.4626 13.32 59.6333 13.8107 59.6333 14.472C59.6333 15.1227 59.4146 15.656 58.9773 16.072C58.5506 16.488 57.9693 16.696 57.2333 16.696C56.9133 16.696 56.6893 16.632 56.5613 16.504ZM11.6357 35L14.5318 24.44H17.8758L18.6118 30.472L21.5878 24.44H24.3878L24.6758 32.344C24.7184 33.3893 24.9958 34.072 25.5078 34.392C25.3904 34.6053 25.1611 34.8133 24.8198 35.016C24.4784 35.2187 24.0784 35.32 23.6198 35.32C23.1718 35.32 22.8144 35.256 22.5478 35.128C22.2811 35 22.0731 34.8293 21.9238 34.616C21.6571 34.232 21.5238 33.672 21.5238 32.936V27.992L18.3718 35H16.3878L15.2678 27.816L13.4758 35H11.6357ZM30.0339 34.12C29.7032 34.92 29.0099 35.32 27.9539 35.32C27.4099 35.32 26.9672 35.1333 26.6259 34.76C26.3379 34.4293 26.1939 34.0987 26.1939 33.768C26.1939 32.904 26.3912 31.6293 26.7859 29.944L27.3779 26.84L30.6259 26.52L29.6499 31.576C29.4685 32.3653 29.3779 32.8987 29.3779 33.176C29.3779 33.784 29.5965 34.0987 30.0339 34.12ZM27.6659 24.616C27.6659 24.2 27.8365 23.88 28.1779 23.656C28.5299 23.432 28.9565 23.32 29.4579 23.32C29.9592 23.32 30.3592 23.432 30.6579 23.656C30.9672 23.88 31.1219 24.2 31.1219 24.616C31.1219 25.032 30.9512 25.3467 30.6099 25.56C30.2792 25.7733 29.8632 25.88 29.3619 25.88C28.8605 25.88 28.4499 25.7733 28.1299 25.56C27.8205 25.3467 27.6659 25.032 27.6659 24.616ZM38.165 35.32C36.8743 35.32 36.229 34.8187 36.229 33.816C36.2397 33.5387 36.2877 33.1653 36.373 32.696L36.661 31.224C36.949 29.8373 37.093 28.9893 37.093 28.68C37.093 28.0613 36.9117 27.752 36.549 27.752C35.941 27.752 35.477 28.5467 35.157 30.136L34.213 35L30.997 35.32L32.661 26.824L35.285 26.52L35.029 28.088C35.5303 27.0427 36.549 26.52 38.085 26.52C38.8317 26.52 39.3597 26.68 39.669 27C39.989 27.3093 40.149 27.816 40.149 28.52C40.149 29.1813 39.9783 30.2853 39.637 31.832C39.477 32.5253 39.397 33.0053 39.397 33.272C39.397 33.528 39.4663 33.7307 39.605 33.88C39.7543 34.0293 39.9357 34.1147 40.149 34.136C40.0423 34.4987 39.8023 34.7867 39.429 35C39.0663 35.2133 38.645 35.32 38.165 35.32ZM46.4683 26.52C46.8523 26.52 47.1936 26.5627 47.4923 26.648C47.5029 26.6053 47.5189 26.5253 47.5403 26.408L47.6203 25.912C47.6629 25.6987 47.7163 25.416 47.7803 25.064L48.0363 23.8L51.2203 23.48L49.4443 32.76C49.4336 32.824 49.4283 32.9093 49.4283 33.016V33.272C49.4283 33.5067 49.4869 33.7147 49.6042 33.896C49.7216 34.0667 49.8763 34.152 50.0683 34.152C49.8549 34.6533 49.4229 35.0107 48.7723 35.224C48.5483 35.288 48.2763 35.32 47.9563 35.32C47.6469 35.32 47.3483 35.2347 47.0603 35.064C46.7723 34.904 46.5856 34.6853 46.5003 34.408C46.3296 34.6853 46.0736 34.904 45.7323 35.064C45.3909 35.2347 44.9696 35.32 44.4683 35.32C43.9776 35.32 43.5243 35.256 43.1083 35.128C42.7029 35 42.3723 34.7973 42.1163 34.52C41.6469 33.976 41.4123 33.0853 41.4123 31.848C41.4123 30.248 41.8816 28.9627 42.8203 27.992C43.7589 27.0107 44.9749 26.52 46.4683 26.52ZM46.3563 27.48C45.9616 27.48 45.6576 27.6933 45.4443 28.12C45.2309 28.5467 45.0123 29.288 44.7883 30.344C44.5749 31.4 44.4683 32.4027 44.4683 33.352C44.4683 34.0027 44.6603 34.328 45.0443 34.328C45.3856 34.328 45.6736 34.1573 45.9083 33.816C46.1536 33.4747 46.3243 33.0213 46.4203 32.456L47.2843 27.768C47.0603 27.576 46.7509 27.48 46.3563 27.48Z" fill="white"/>
  <path d="M65.4461 13.9161C67.0303 19.4409 64.9504 25.4876 60.2319 30.8091C55.5159 36.1279 48.1864 40.6914 39.3575 43.223C30.5286 45.7547 21.8945 45.7686 15.0765 43.7572C8.25509 41.7447 3.28693 37.719 1.70274 32.1942C0.118542 26.6695 2.19848 20.6228 6.91691 15.3013C11.633 9.9825 18.9625 5.41897 27.7914 2.88733C36.6203 0.355683 45.2543 0.341735 52.0723 2.35319C58.8937 4.36566 63.8619 8.39138 65.4461 13.9161Z" stroke="white" stroke-width="0.5"/>
</svg>
