<svg width="200" height="80" viewBox="0 0 57 27" fill="none" xmlns="http://www.w3.org/2000/svg">
  <path d="M0.503 12L2.455 1.488C3.511 1.37067 4.807 1.312 6.343 1.312C7.88967 1.312 9.02033 1.536 9.735 1.984C10.4497 2.432 10.807 3.10933 10.807 4.016C10.807 4.912 10.5723 5.64267 10.103 6.208C9.64433 6.77333 9.015 7.14667 8.215 7.328C8.39633 8.21333 8.695 9.01333 9.111 9.728C9.495 10.4 9.911 10.8427 10.359 11.056C10.199 11.504 9.95367 11.824 9.623 12.016C9.303 12.2187 8.90833 12.32 8.439 12.32C7.98033 12.32 7.56967 12.1867 7.207 11.92C6.84433 11.6427 6.519 11.2533 6.231 10.752C5.623 9.664 5.287 8.26133 5.223 6.544H5.335C6.12433 6.52267 6.71633 6.30933 7.111 5.904C7.50567 5.488 7.703 4.848 7.703 3.984C7.703 2.90667 7.24967 2.34667 6.343 2.304H5.991C5.895 2.304 5.82033 2.30933 5.767 2.32L3.927 12H0.503ZM18.0176 9.296C18.2843 9.47733 18.4176 9.77067 18.4176 10.176C18.4176 10.5707 18.3163 10.896 18.1136 11.152C17.911 11.408 17.6443 11.6213 17.3136 11.792C16.631 12.144 15.9216 12.32 15.1856 12.32C14.4496 12.32 13.863 12.24 13.4256 12.08C12.999 11.92 12.6416 11.6907 12.3536 11.392C11.7883 10.8267 11.5056 10.0267 11.5056 8.992C11.5056 7.38133 11.943 6.08533 12.8176 5.104C13.7563 4.048 15.0416 3.52 16.6736 3.52C17.687 3.52 18.4443 3.73333 18.9456 4.16C19.319 4.48 19.5056 4.90133 19.5056 5.424C19.5056 7.30133 17.8843 8.24 14.6416 8.24C14.599 8.51733 14.5776 8.77333 14.5776 9.008C14.5776 9.49867 14.6843 9.84 14.8976 10.032C15.1216 10.2133 15.4363 10.304 15.8416 10.304C16.247 10.304 16.663 10.2133 17.0896 10.032C17.527 9.84 17.8363 9.59467 18.0176 9.296ZM14.7536 7.552C15.511 7.552 16.1083 7.31733 16.5456 6.848C16.983 6.4 17.2016 5.81867 17.2016 5.104C17.2016 4.85867 17.1536 4.672 17.0576 4.544C16.9723 4.40533 16.839 4.336 16.6576 4.336C16.4763 4.336 16.3056 4.37333 16.1456 4.448C15.9963 4.512 15.8416 4.66133 15.6816 4.896C15.287 5.42933 14.9776 6.31467 14.7536 7.552ZM20.7413 11.52C20.4959 11.2427 20.3146 10.8853 20.1973 10.448C20.0906 10.0107 20.0373 9.43467 20.0373 8.72C20.0373 8.00533 20.1599 7.32267 20.4053 6.672C20.6506 6.02133 20.9973 5.46133 21.4453 4.992C22.3626 4.01067 23.5786 3.52 25.0933 3.52C25.6373 3.52 26.1066 3.61067 26.5013 3.792L29.2373 3.52L28.0533 9.76C28.0213 9.888 28.0052 10.0693 28.0052 10.304C28.0052 10.5387 28.0746 10.7307 28.2133 10.88C28.3626 11.0293 28.5439 11.1147 28.7573 11.136C28.6506 11.4987 28.3999 11.7867 28.0052 12C27.6213 12.2133 27.2106 12.32 26.7733 12.32C26.3359 12.32 25.9679 12.2347 25.6693 12.064C25.3813 11.904 25.1946 11.6853 25.1093 11.408C24.9386 11.6747 24.6719 11.8933 24.3093 12.064C23.9466 12.2347 23.5199 12.32 23.0293 12.32C22.5493 12.32 22.1119 12.256 21.7173 12.128C21.3226 12 20.9973 11.7973 20.7413 11.52ZM24.1173 5.024C23.9999 5.216 23.8879 5.47733 23.7812 5.808C23.6746 6.128 23.5306 6.72533 23.3493 7.6C23.1786 8.464 23.0933 9.20533 23.0933 9.824C23.0933 10.4427 23.1413 10.8427 23.2373 11.024C23.3333 11.2053 23.4666 11.296 23.6373 11.296C23.9786 11.296 24.2719 11.136 24.5173 10.816C24.7733 10.4853 24.9493 10.032 25.0453 9.456L25.8933 4.768C25.6693 4.576 25.4239 4.48 25.1573 4.48C24.9013 4.48 24.6933 4.52267 24.5333 4.608C24.3839 4.69333 24.2453 4.832 24.1173 5.024ZM35.0776 3.52C35.4616 3.52 35.803 3.56267 36.1016 3.648C36.1123 3.60533 36.1283 3.52533 36.1496 3.408L36.2296 2.912C36.2723 2.69867 36.3256 2.416 36.3896 2.064L36.6456 0.799999L39.8296 0.48L38.0536 9.76C38.043 9.824 38.0376 9.90933 38.0376 10.016V10.272C38.0376 10.5067 38.0963 10.7147 38.2136 10.896C38.331 11.0667 38.4856 11.152 38.6776 11.152C38.4643 11.6533 38.0323 12.0107 37.3816 12.224C37.1576 12.288 36.8856 12.32 36.5656 12.32C36.2563 12.32 35.9576 12.2347 35.6696 12.064C35.3816 11.904 35.195 11.6853 35.1096 11.408C34.939 11.6853 34.683 11.904 34.3416 12.064C34.0003 12.2347 33.579 12.32 33.0776 12.32C32.587 12.32 32.1336 12.256 31.7176 12.128C31.3123 12 30.9816 11.7973 30.7256 11.52C30.2563 10.976 30.0216 10.0853 30.0216 8.848C30.0216 7.248 30.491 5.96267 31.4296 4.992C32.3683 4.01067 33.5843 3.52 35.0776 3.52ZM34.9656 4.48C34.571 4.48 34.267 4.69333 34.0536 5.12C33.8403 5.54667 33.6216 6.288 33.3976 7.344C33.1843 8.4 33.0776 9.40267 33.0776 10.352C33.0776 11.0027 33.2696 11.328 33.6536 11.328C33.995 11.328 34.283 11.1573 34.5176 10.816C34.763 10.4747 34.9336 10.0213 35.0296 9.456L35.8936 4.768C35.6696 4.576 35.3603 4.48 34.9656 4.48ZM46.5176 9.296C46.7843 9.47733 46.9176 9.77067 46.9176 10.176C46.9176 10.5707 46.8163 10.896 46.6136 11.152C46.411 11.408 46.1443 11.6213 45.8136 11.792C45.131 12.144 44.4216 12.32 43.6856 12.32C42.9496 12.32 42.363 12.24 41.9256 12.08C41.499 11.92 41.1416 11.6907 40.8536 11.392C40.2883 10.8267 40.0056 10.0267 40.0056 8.992C40.0056 7.38133 40.443 6.08533 41.3176 5.104C42.2563 4.048 43.5416 3.52 45.1736 3.52C46.187 3.52 46.9443 3.73333 47.4456 4.16C47.819 4.48 48.0056 4.90133 48.0056 5.424C48.0056 7.30133 46.3843 8.24 43.1416 8.24C43.099 8.51733 43.0776 8.77333 43.0776 9.008C43.0776 9.49867 43.1843 9.84 43.3976 10.032C43.6216 10.2133 43.9363 10.304 44.3416 10.304C44.747 10.304 45.163 10.2133 45.5896 10.032C46.027 9.84 46.3363 9.59467 46.5176 9.296ZM43.2536 7.552C44.011 7.552 44.6083 7.31733 45.0456 6.848C45.483 6.4 45.7016 5.81867 45.7016 5.104C45.7016 4.85867 45.6536 4.672 45.5576 4.544C45.4723 4.40533 45.339 4.336 45.1576 4.336C44.9763 4.336 44.8056 4.37333 44.6456 4.448C44.4963 4.512 44.3416 4.66133 44.1816 4.896C43.787 5.42933 43.4776 6.31467 43.2536 7.552ZM53.5613 7.504C53.9453 6.82133 54.1373 6.13333 54.1373 5.44C54.1373 4.98133 53.9719 4.752 53.6413 4.752C53.3853 4.752 53.1239 4.97067 52.8573 5.408C52.5799 5.84533 52.3986 6.34667 52.3133 6.912L51.4813 12L48.1692 12.32L49.8013 3.84L52.4413 3.52L52.1533 5.136C52.6759 4.05867 53.5239 3.52 54.6973 3.52C55.3159 3.52 55.7906 3.68 56.1213 4C56.4626 4.32 56.6333 4.81067 56.6333 5.472C56.6333 6.12267 56.4146 6.656 55.9773 7.072C55.5506 7.488 54.9693 7.696 54.2333 7.696C53.9133 7.696 53.6893 7.632 53.5613 7.504ZM8.63575 26L11.5318 15.44H14.8758L15.6118 21.472L18.5878 15.44H21.3878L21.6758 23.344C21.7184 24.3893 21.9958 25.072 22.5078 25.392C22.3904 25.6053 22.1611 25.8133 21.8198 26.016C21.4784 26.2187 21.0784 26.32 20.6198 26.32C20.1718 26.32 19.8144 26.256 19.5478 26.128C19.2811 26 19.0731 25.8293 18.9238 25.616C18.6571 25.232 18.5238 24.672 18.5238 23.936V18.992L15.3718 26H13.3878L12.2678 18.816L10.4758 26H8.63575ZM27.0339 25.12C26.7032 25.92 26.0099 26.32 24.9539 26.32C24.4099 26.32 23.9672 26.1333 23.6259 25.76C23.3379 25.4293 23.1939 25.0987 23.1939 24.768C23.1939 23.904 23.3912 22.6293 23.7859 20.944L24.3779 17.84L27.6259 17.52L26.6499 22.576C26.4685 23.3653 26.3779 23.8987 26.3779 24.176C26.3779 24.784 26.5965 25.0987 27.0339 25.12ZM24.6659 15.616C24.6659 15.2 24.8365 14.88 25.1779 14.656C25.5299 14.432 25.9565 14.32 26.4579 14.32C26.9592 14.32 27.3592 14.432 27.6579 14.656C27.9672 14.88 28.1219 15.2 28.1219 15.616C28.1219 16.032 27.9512 16.3467 27.6099 16.56C27.2792 16.7733 26.8632 16.88 26.3619 16.88C25.8605 16.88 25.4499 16.7733 25.1299 16.56C24.8205 16.3467 24.6659 16.032 24.6659 15.616ZM35.165 26.32C33.8743 26.32 33.229 25.8187 33.229 24.816C33.2397 24.5387 33.2877 24.1653 33.373 23.696L33.661 22.224C33.949 20.8373 34.093 19.9893 34.093 19.68C34.093 19.0613 33.9117 18.752 33.549 18.752C32.941 18.752 32.477 19.5467 32.157 21.136L31.213 26L27.997 26.32L29.661 17.824L32.285 17.52L32.029 19.088C32.5303 18.0427 33.549 17.52 35.085 17.52C35.8317 17.52 36.3597 17.68 36.669 18C36.989 18.3093 37.149 18.816 37.149 19.52C37.149 20.1813 36.9783 21.2853 36.637 22.832C36.477 23.5253 36.397 24.0053 36.397 24.272C36.397 24.528 36.4663 24.7307 36.605 24.88C36.7543 25.0293 36.9357 25.1147 37.149 25.136C37.0423 25.4987 36.8023 25.7867 36.429 26C36.0663 26.2133 35.645 26.32 35.165 26.32ZM43.4683 17.52C43.8523 17.52 44.1936 17.5627 44.4923 17.648C44.5029 17.6053 44.5189 17.5253 44.5403 17.408L44.6203 16.912C44.6629 16.6987 44.7163 16.416 44.7803 16.064L45.0363 14.8L48.2203 14.48L46.4443 23.76C46.4336 23.824 46.4283 23.9093 46.4283 24.016V24.272C46.4283 24.5067 46.4869 24.7147 46.6042 24.896C46.7216 25.0667 46.8763 25.152 47.0683 25.152C46.8549 25.6533 46.4229 26.0107 45.7723 26.224C45.5483 26.288 45.2763 26.32 44.9563 26.32C44.6469 26.32 44.3483 26.2347 44.0603 26.064C43.7723 25.904 43.5856 25.6853 43.5003 25.408C43.3296 25.6853 43.0736 25.904 42.7323 26.064C42.3909 26.2347 41.9696 26.32 41.4683 26.32C40.9776 26.32 40.5243 26.256 40.1083 26.128C39.7029 26 39.3723 25.7973 39.1163 25.52C38.6469 24.976 38.4123 24.0853 38.4123 22.848C38.4123 21.248 38.8816 19.9627 39.8203 18.992C40.7589 18.0107 41.9749 17.52 43.4683 17.52ZM43.3563 18.48C42.9616 18.48 42.6576 18.6933 42.4443 19.12C42.2309 19.5467 42.0123 20.288 41.7883 21.344C41.5749 22.4 41.4683 23.4027 41.4683 24.352C41.4683 25.0027 41.6603 25.328 42.0443 25.328C42.3856 25.328 42.6736 25.1573 42.9083 24.816C43.1536 24.4747 43.3243 24.0213 43.4203 23.456L44.2843 18.768C44.0603 18.576 43.7509 18.48 43.3563 18.48Z" fill="white"/>
</svg>
