<svg width="12" height="12" viewBox="0 0 12 12" fill="none" xmlns="http://www.w3.org/2000/svg">
  <path d="M10.7665 2.99061C10.7741 3.12186 10.7741 3.25313 10.7741 3.38437C10.7741 7.38748 8.29953 12 3.77666 12C2.38325 12 1.08884 11.5031 0 10.6406C0.197977 10.6687 0.388314 10.6781 0.593909 10.6781C1.74364 10.6781 2.80203 10.2 3.64722 9.38439C2.56599 9.35625 1.6599 8.48438 1.34771 7.28437C1.50001 7.31248 1.65228 7.33124 1.81219 7.33124C2.033 7.33124 2.25383 7.29372 2.4594 7.22813C1.3325 6.94686 0.487291 5.72812 0.487291 4.25624V4.21876C0.814691 4.44376 1.19543 4.58438 1.59896 4.60311C0.936519 4.05935 0.502525 3.13124 0.502525 2.08123C0.502525 1.51874 0.624331 1.00311 0.837542 0.553111C2.04821 2.39061 3.86802 3.59059 5.90862 3.72186C5.87055 3.49686 5.8477 3.26251 5.8477 3.02813C5.8477 1.35936 6.94416 0 8.3071 0C9.01522 0 9.65481 0.365624 10.1041 0.95625C10.6599 0.825006 11.1929 0.571868 11.665 0.225002C11.4822 0.928142 11.0939 1.51877 10.5838 1.89374C11.0787 1.82815 11.5584 1.65936 12 1.42501C11.665 2.02499 11.2462 2.55934 10.7665 2.99061Z" fill="#C4C4C4"/>
</svg>
